<?xml version="1.0" encoding="UTF-8"?>
<svg xmlns="http://www.w3.org/2000/svg" viewBox="0 0 1024 1024" width="1024" height="1024">
  <!-- White background with subtle border -->
  <rect width="1024" height="1024" rx="225" fill="white"/>
  <rect width="1024" height="1024" rx="225" fill="none" stroke="#d0d0d0" stroke-width="1.5"/>

  <!-- Enso brushstroke -->
  <g opacity="0.95">
    <path d="M 353.8 248.8 L 357.6 246.3 L 388.5 299.6 L 385.4 301.3 Z" fill="#1a1a1a" opacity="0.354"/>
    <path d="M 357.6 246.3 L 361.2 243.7 L 364.7 240.8 L 395.4 297.3 L 391.9 298.3 L 388.5 299.6 Z" fill="#1a1a1a" opacity="0.500"/>
    <path d="M 364.7 240.8 L 368.1 237.8 L 399.0 296.6 L 395.4 297.3 Z" fill="#1a1a1a" opacity="0.612"/>
    <path d="M 368.1 237.8 L 371.6 234.6 L 375.0 231.3 L 406.4 295.7 L 402.7 296.1 L 399.0 296.6 Z" fill="#1a1a1a" opacity="0.707"/>
    <path d="M 375.0 231.3 L 378.4 228.0 L 410.2 295.6 L 406.4 295.7 Z" fill="#1a1a1a" opacity="0.791"/>
    <path d="M 378.4 228.0 L 381.9 224.7 L 385.5 221.5 L 417.7 295.5 L 414.0 295.5 L 410.2 295.6 Z" fill="#1a1a1a" opacity="0.866"/>
    <path d="M 385.5 221.5 L 389.1 218.3 L 421.5 295.6 L 417.7 295.5 Z" fill="#1a1a1a" opacity="0.935"/>
    <path d="M 389.1 218.3 L 392.9 215.3 L 396.8 212.4 L 428.7 295.5 L 425.1 295.6 L 421.5 295.6 Z" fill="#1a1a1a" opacity="1.000"/>
    <path d="M 335.1 738.4 L 332.0 735.6 L 328.9 732.9 L 325.8 730.0 L 339.1 714.5 L 342.2 716.8 L 345.3 719.1 L 348.4 721.3 Z" fill="#1a1a1a" opacity="1.000"/>
    <path d="M 325.8 730.0 L 322.8 727.2 L 319.9 724.3 L 316.9 721.3 L 330.1 707.2 L 333.1 709.7 L 336.1 712.1 L 339.1 714.5 Z" fill="#1a1a1a" opacity="0.903"/>
    <path d="M 316.9 721.3 L 314.1 718.3 L 311.2 715.3 L 308.4 712.2 L 305.7 709.1 L 318.5 696.9 L 321.4 699.5 L 324.2 702.1 L 327.1 704.7 L 330.1 707.2 Z" fill="#1a1a1a" opacity="0.813"/>
    <path d="M 305.7 709.1 L 303.0 706.0 L 300.3 702.8 L 297.7 699.6 L 310.3 688.7 L 313.0 691.4 L 315.7 694.2 L 318.5 696.9 Z" fill="#1a1a1a" opacity="0.729"/>
    <path d="M 297.7 699.6 L 295.2 696.4 L 292.7 693.1 L 290.2 689.8 L 302.4 680.1 L 305.0 683.0 L 307.6 685.8 L 310.3 688.7 Z" fill="#1a1a1a" opacity="0.651"/>
    <path d="M 290.2 689.8 L 287.8 686.5 L 285.4 683.1 L 283.1 679.7 L 280.8 676.3 L 292.5 668.0 L 294.9 671.1 L 297.3 674.1 L 299.8 677.1 L 302.4 680.1 Z" fill="#1a1a1a" opacity="0.579"/>
    <path d="M 280.8 676.3 L 278.6 672.8 L 276.4 669.4 L 274.3 665.8 L 285.5 658.6 L 287.8 661.8 L 290.1 664.9 L 292.5 668.0 Z" fill="#1a1a1a" opacity="0.512"/>
    <path d="M 274.3 665.8 L 272.2 662.3 L 270.2 658.7 L 268.2 655.1 L 278.9 648.8 L 281.1 652.1 L 283.3 655.4 L 285.5 658.6 Z" fill="#1a1a1a" opacity="0.451"/>
    <path d="M 268.2 655.1 L 266.3 651.5 L 264.4 647.9 L 262.6 644.2 L 260.9 640.5 L 270.9 635.4 L 272.8 638.8 L 274.8 642.2 L 276.9 645.5 L 278.9 648.8 Z" fill="#1a1a1a" opacity="0.394"/>
    <path d="M 260.9 640.5 L 259.2 636.8 L 257.5 633.1 L 255.9 629.3 L 265.4 625.0 L 267.2 628.5 L 269.0 631.9 L 270.9 635.4 Z" fill="#1a1a1a" opacity="0.343"/>
    <path d="M 255.9 629.3 L 254.3 625.5 L 252.8 621.7 L 251.4 617.9 L 260.3 614.3 L 262.0 617.9 L 263.6 621.4 L 265.4 625.0 Z" fill="#1a1a1a" opacity="0.296"/>
    <path d="M 251.4 617.9 L 250.0 614.1 L 248.7 610.2 L 247.4 606.4 L 246.2 602.5 L 254.4 599.7 L 255.8 603.4 L 257.2 607.0 L 258.8 610.7 L 260.3 614.3 Z" fill="#1a1a1a" opacity="0.254"/>
    <path d="M 246.2 602.5 L 245.0 598.6 L 243.9 594.7 L 242.8 590.8 L 250.5 588.5 L 251.7 592.3 L 253.0 596.0 L 254.4 599.7 Z" fill="#1a1a1a" opacity="0.216"/>
    <path d="M 242.8 590.8 L 241.8 586.8 L 240.9 582.9 L 240.0 578.9 L 247.1 577.2 L 248.2 581.0 L 249.3 584.8 L 250.5 588.5 Z" fill="#1a1a1a" opacity="0.182"/>
    <path d="M 240.0 578.9 L 239.1 574.9 L 238.3 571.0 L 237.6 567.0 L 236.9 563.0 L 243.4 561.8 L 244.2 565.7 L 245.1 569.5 L 246.1 573.3 L 247.1 577.2 Z" fill="#1a1a1a" opacity="0.152"/>
    <path d="M 236.9 563.0 L 236.3 559.0 L 235.8 555.0 L 235.3 550.9 L 241.2 550.1 L 241.8 554.0 L 242.6 557.9 L 243.4 561.8 Z" fill="#1a1a1a" opacity="0.125"/>
    <path d="M 235.3 550.9 L 234.8 546.9 L 234.4 542.9 L 234.1 538.9 L 239.5 538.3 L 240.0 542.3 L 240.6 546.2 L 241.2 550.1 Z" fill="#1a1a1a" opacity="0.102"/>
    <path d="M 234.1 538.9 L 233.8 534.8 L 233.6 530.8 L 233.4 526.7 L 233.3 522.7 L 238.1 522.5 L 238.4 526.5 L 238.7 530.4 L 239.1 534.4 L 239.5 538.3 Z" fill="#1a1a1a" opacity="0.081"/>
    <path d="M 233.3 522.7 L 233.3 518.7 L 233.3 514.6 L 233.3 510.6 L 237.7 510.6 L 237.8 514.6 L 237.9 518.6 L 238.1 522.5 Z" fill="#1a1a1a" opacity="0.064"/>
    <path d="M 233.3 510.6 L 233.4 506.6 L 233.6 502.5 L 233.8 498.5 L 237.8 498.7 L 237.7 502.7 L 237.7 506.6 L 237.7 510.6 Z" fill="#1a1a1a" opacity="0.049"/>
    <path d="M 233.8 498.5 L 234.1 494.5 L 234.5 490.5 L 234.9 486.4 L 235.3 482.4 L 238.9 482.8 L 238.5 486.8 L 238.2 490.7 L 238.0 494.7 L 237.8 498.7 Z" fill="#1a1a1a" opacity="0.037"/>
    <path d="M 235.3 482.4 L 235.8 478.4 L 236.4 474.4 L 237.0 470.5 L 240.2 470.9 L 239.7 474.9 L 239.3 478.8 L 238.9 482.8 Z" fill="#1a1a1a" opacity="0.027"/>
    <path d="M 237.0 470.5 L 237.7 466.5 L 238.4 462.5 L 239.2 458.6 L 242.1 459.2 L 241.4 463.1 L 240.8 467.0 L 240.2 470.9 Z" fill="#1a1a1a" opacity="0.019"/>
    <path d="M 239.2 458.6 L 240.0 454.6 L 240.9 450.7 L 241.9 446.8 L 242.9 442.9 L 245.5 443.6 L 244.6 447.5 L 243.7 451.3 L 242.9 455.2 L 242.1 459.2 Z" fill="#1a1a1a" opacity="0.013"/>
    <path d="M 242.9 442.9 L 244.0 439.0 L 245.1 435.2 L 246.2 431.3 L 248.6 432.0 L 247.5 435.9 L 246.5 439.7 L 245.5 443.6 Z" fill="#1a1a1a" opacity="0.008"/>
    <path d="M 246.2 431.3 L 247.5 427.5 L 248.7 423.7 L 250.1 419.9 L 252.3 420.6 L 251.0 424.4 L 249.8 428.2 L 248.6 432.0 Z" fill="#1a1a1a" opacity="0.005"/>
    <path d="M 250.1 419.9 L 251.5 416.1 L 252.9 412.3 L 254.4 408.6 L 255.9 404.9 L 258.0 405.7 L 256.5 409.4 L 255.0 413.1 L 253.6 416.9 L 252.3 420.6 Z" fill="#1a1a1a" opacity="0.002"/>
    <path d="M 255.9 404.9 L 257.5 401.2 L 259.2 397.5 L 260.9 393.9 L 262.8 394.8 L 261.1 398.4 L 259.5 402.1 L 258.0 405.7 Z" fill="#1a1a1a" opacity="0.001"/>
    <path d="M 260.9 393.9 L 262.6 390.3 L 264.4 386.7 L 266.2 383.1 L 268.1 384.0 L 266.3 387.6 L 264.5 391.2 L 262.8 394.8 Z" fill="#1a1a1a" opacity="0.000"/>
    <path d="M 266.2 383.1 L 268.1 379.5 L 270.1 376.0 L 272.1 372.5 L 274.1 369.1 L 275.9 370.1 L 273.9 373.6 L 271.9 377.0 L 270.0 380.5 L 268.1 384.0 Z" fill="#1a1a1a" opacity="0.000"/>

    <path d="M 392.9 215.3 L 396.8 212.4 L 400.7 209.8 L 404.9 207.4 L 409.1 205.4 L 413.3 203.2 L 417.8 201.8 L 422.3 200.4 L 426.8 199.1 L 431.4 197.9 L 435.9 196.8 L 440.5 195.7 L 445.1 194.6 L 449.7 193.7 L 454.3 192.8 L 458.9 192.0 L 463.5 191.2 L 468.2 190.6 L 472.9 190.0 L 477.5 189.4 L 482.2 188.9 L 486.9 188.5 L 491.6 188.2 L 496.3 188.0 L 501.0 187.8 L 505.7 187.6 L 510.4 187.6 L 515.1 187.6 L 519.8 187.7 L 524.5 187.8 L 529.1 188.1 L 533.8 188.4 L 538.5 188.7 L 543.2 189.2 L 547.9 189.7 L 552.5 190.3 L 557.2 190.9 L 561.8 191.6 L 566.5 192.4 L 571.1 193.2 L 575.7 194.2 L 580.3 195.1 L 584.8 196.2 L 589.4 197.3 L 594.0 198.5 L 598.5 199.8 L 603.0 201.1 L 607.5 202.5 L 611.9 203.9 L 616.4 205.4 L 620.8 207.0 L 625.2 208.7 L 629.5 210.4 L 633.9 212.1 L 638.2 214.0 L 642.5 215.9 L 646.7 217.8 L 651.0 219.8 L 655.2 221.9 L 659.3 224.1 L 663.5 226.3 L 667.6 228.5 L 671.7 230.8 L 675.7 233.2 L 679.7 235.6 L 683.7 238.1 L 687.6 240.7 L 691.5 243.3 L 695.3 245.9 L 699.2 248.6 L 702.9 251.4 L 706.7 254.2 L 710.4 257.1 L 714.0 260.0 L 717.6 263.0 L 721.2 266.0 L 724.7 269.1 L 728.2 272.2 L 731.6 275.4 L 735.0 278.6 L 738.4 281.9 L 741.7 285.2 L 744.9 288.5 L 748.1 292.0 L 751.3 295.4 L 754.4 298.9 L 757.5 302.4 L 760.5 306.0 L 763.4 309.6 L 766.3 313.3 L 769.2 317.0 L 772.0 320.8 L 774.7 324.5 L 777.4 328.4 L 780.1 332.2 L 782.6 336.1 L 785.2 340.0 L 787.6 344.0 L 790.1 348.0 L 792.4 352.1 L 794.7 356.1 L 797.0 360.2 L 799.2 364.4 L 801.3 368.5 L 803.4 372.7 L 805.4 376.9 L 807.3 381.2 L 809.2 385.5 L 811.0 389.8 L 812.8 394.1 L 814.5 398.5 L 816.2 402.9 L 817.7 407.3 L 819.3 411.7 L 820.7 416.1 L 822.1 420.6 L 823.4 425.1 L 824.7 429.6 L 825.9 434.1 L 827.0 438.7 L 828.1 443.3 L 829.1 447.8 L 830.0 452.4 L 830.9 457.0 L 831.7 461.6 L 832.4 466.3 L 833.1 470.9 L 833.7 475.6 L 834.2 480.2 L 834.7 484.9 L 835.1 489.6 L 835.4 494.3 L 835.7 498.9 L 835.9 503.6 L 836.0 508.3 L 836.1 513.0 L 836.0 517.7 L 836.0 522.4 L 835.8 527.1 L 835.6 531.8 L 835.3 536.5 L 834.9 541.2 L 834.5 545.8 L 834.0 550.5 L 833.4 555.2 L 832.8 559.8 L 832.1 564.5 L 831.3 569.1 L 830.4 573.7 L 829.5 578.3 L 828.6 582.9 L 827.5 587.5 L 826.4 592.1 L 825.2 596.6 L 823.9 601.2 L 822.6 605.7 L 821.2 610.2 L 819.8 614.6 L 818.3 619.1 L 816.7 623.5 L 815.0 627.9 L 813.3 632.3 L 811.5 636.6 L 809.7 640.9 L 807.7 645.2 L 805.8 649.5 L 803.7 653.7 L 801.6 657.9 L 799.5 662.1 L 797.2 666.2 L 795.0 670.3 L 792.6 674.4 L 790.2 678.4 L 787.7 682.4 L 785.2 686.4 L 782.6 690.3 L 780.0 694.2 L 777.3 698.0 L 774.6 701.8 L 771.8 705.6 L 768.9 709.3 L 766.0 713.0 L 763.0 716.6 L 760.0 720.2 L 756.9 723.8 L 753.8 727.3 L 750.6 730.7 L 747.4 734.1 L 744.1 737.5 L 740.8 740.8 L 737.1 743.7 L 733.4 746.6 L 729.7 749.4 L 725.9 752.2 L 722.1 754.9 L 718.2 757.6 L 714.3 760.2 L 710.4 762.7 L 706.5 765.2 L 702.5 767.6 L 698.5 769.9 L 694.5 772.2 L 690.4 774.4 L 686.4 776.6 L 682.2 778.7 L 678.1 780.8 L 674.0 782.8 L 669.8 784.7 L 665.6 786.5 L 661.4 788.3 L 657.2 790.1 L 652.9 791.7 L 648.7 793.3 L 644.4 794.9 L 640.1 796.4 L 635.8 797.8 L 631.5 799.1 L 627.1 800.4 L 622.8 801.6 L 618.4 802.8 L 614.1 803.9 L 609.7 804.9 L 605.3 805.9 L 600.9 806.8 L 596.5 807.7 L 592.1 808.5 L 587.7 809.2 L 583.3 809.8 L 578.9 810.4 L 574.5 811.0 L 570.0 811.4 L 565.6 811.9 L 561.2 812.2 L 556.8 812.5 L 552.4 812.7 L 548.0 812.9 L 543.6 813.0 L 539.2 813.0 L 534.8 813.0 L 530.4 812.9 L 526.0 812.8 L 521.7 812.6 L 517.3 812.3 L 512.9 812.0 L 508.6 811.6 L 504.3 811.2 L 500.0 810.7 L 495.6 810.1 L 491.4 809.5 L 487.1 808.9 L 482.8 808.1 L 478.6 807.3 L 474.3 806.5 L 470.1 805.6 L 465.9 804.7 L 461.7 803.6 L 457.6 802.6 L 453.4 801.5 L 449.3 800.3 L 445.2 799.0 L 441.1 797.8 L 437.1 796.4 L 433.0 795.0 L 429.0 793.6 L 425.0 792.1 L 421.1 790.5 L 417.1 788.9 L 413.2 787.3 L 409.3 785.6 L 405.5 783.8 L 401.7 782.0 L 397.9 780.1 L 394.1 778.2 L 390.3 776.2 L 386.6 774.2 L 383.0 772.2 L 379.3 770.1 L 375.7 767.9 L 372.1 765.7 L 368.6 763.4 L 365.1 761.1 L 361.6 758.8 L 358.2 756.4 L 354.7 754.0 L 351.4 751.5 L 348.1 748.9 L 344.8 746.4 L 341.5 743.8 L 338.3 741.1 L 335.1 738.4 L 332.0 735.6 L 328.9 732.9 L 342.2 716.8 L 345.3 719.1 L 348.4 721.3 L 351.6 723.5 L 354.8 725.7 L 358.1 727.7 L 361.3 729.8 L 364.6 731.8 L 367.9 733.7 L 371.3 735.6 L 374.6 737.4 L 378.0 739.2 L 381.5 740.9 L 384.9 742.5 L 388.4 744.2 L 391.8 745.7 L 395.3 747.2 L 398.9 748.7 L 402.4 750.0 L 406.0 751.4 L 409.6 752.7 L 413.1 753.9 L 416.8 755.0 L 420.4 756.1 L 424.0 757.2 L 427.7 758.2 L 431.3 759.1 L 435.0 760.0 L 438.7 760.8 L 442.4 761.6 L 446.1 762.3 L 449.8 762.9 L 453.5 763.5 L 457.2 764.0 L 460.9 764.5 L 464.6 764.9 L 468.3 765.3 L 472.1 765.6 L 475.8 765.8 L 479.5 766.0 L 483.2 766.1 L 486.9 766.2 L 490.7 766.2 L 494.4 766.1 L 498.1 766.0 L 501.8 765.8 L 505.4 765.6 L 509.1 765.3 L 512.8 765.0 L 516.5 764.6 L 520.1 764.1 L 523.7 763.6 L 527.4 763.0 L 531.0 762.4 L 534.5 761.7 L 538.1 761.0 L 541.7 760.2 L 545.2 759.3 L 548.7 758.4 L 552.2 757.5 L 555.7 756.5 L 559.2 755.4 L 562.6 754.3 L 566.0 753.1 L 569.4 751.9 L 572.8 750.7 L 576.1 749.4 L 579.4 748.0 L 582.7 746.6 L 586.0 745.1 L 589.2 743.6 L 592.4 742.1 L 595.6 740.5 L 598.8 738.8 L 601.9 737.1 L 604.9 735.4 L 608.0 733.6 L 611.0 731.8 L 614.0 729.9 L 617.0 728.0 L 619.9 726.1 L 622.7 724.1 L 625.6 722.1 L 628.4 720.0 L 631.2 717.9 L 633.9 715.8 L 636.6 713.6 L 639.3 711.4 L 641.9 709.1 L 644.5 706.8 L 647.0 704.5 L 649.5 702.2 L 652.0 699.8 L 654.4 697.4 L 656.8 694.9 L 659.1 692.4 L 661.4 689.9 L 663.6 687.4 L 665.8 684.8 L 668.0 682.2 L 670.1 679.5 L 672.2 676.9 L 674.2 674.2 L 676.5 671.8 L 678.8 669.4 L 681.0 666.9 L 683.2 664.4 L 685.4 661.9 L 687.5 659.3 L 689.6 656.8 L 691.6 654.2 L 693.6 651.5 L 695.6 648.9 L 697.5 646.2 L 699.4 643.4 L 701.3 640.7 L 703.1 637.9 L 704.9 635.1 L 706.6 632.3 L 708.3 629.4 L 710.0 626.6 L 711.6 623.7 L 713.2 620.8 L 714.7 617.8 L 716.2 614.9 L 717.6 611.9 L 719.1 608.9 L 720.4 605.9 L 721.7 602.9 L 723.0 599.8 L 724.3 596.7 L 725.5 593.6 L 726.6 590.5 L 727.7 587.4 L 728.8 584.3 L 729.8 581.1 L 730.8 578.0 L 731.7 574.8 L 732.6 571.6 L 733.5 568.4 L 734.3 565.2 L 735.0 562.0 L 735.7 558.7 L 736.4 555.5 L 737.0 552.2 L 737.6 549.0 L 738.1 545.7 L 738.6 542.4 L 739.1 539.2 L 739.4 535.9 L 739.8 532.6 L 740.1 529.3 L 740.3 526.0 L 740.6 522.7 L 740.7 519.3 L 740.8 516.0 L 740.9 512.7 L 740.9 509.4 L 740.9 506.1 L 740.8 502.8 L 740.7 499.5 L 740.5 496.1 L 740.3 492.8 L 740.0 489.5 L 739.7 486.2 L 739.4 482.9 L 739.0 479.6 L 738.5 476.3 L 738.0 473.0 L 737.5 469.8 L 736.9 466.5 L 736.2 463.2 L 735.5 460.0 L 734.8 456.7 L 734.0 453.5 L 733.2 450.3 L 732.3 447.1 L 731.4 443.9 L 730.4 440.7 L 729.4 437.5 L 728.3 434.4 L 727.2 431.2 L 726.0 428.1 L 724.8 425.0 L 723.6 421.9 L 722.3 418.9 L 720.9 415.8 L 719.5 412.8 L 718.1 409.8 L 716.6 406.8 L 715.1 403.8 L 713.5 400.9 L 711.9 398.0 L 710.2 395.1 L 708.5 392.2 L 706.8 389.4 L 705.0 386.6 L 703.2 383.8 L 701.3 381.0 L 699.4 378.3 L 697.4 375.6 L 695.5 372.9 L 693.4 370.3 L 691.3 367.6 L 689.2 365.1 L 687.1 362.5 L 684.9 360.0 L 682.7 357.5 L 680.4 355.1 L 678.1 352.7 L 675.8 350.3 L 673.4 347.9 L 671.0 345.6 L 668.6 343.4 L 666.1 341.1 L 663.6 338.9 L 661.0 336.8 L 658.5 334.6 L 655.9 332.6 L 653.2 330.5 L 650.6 328.5 L 647.9 326.5 L 645.2 324.6 L 642.4 322.7 L 639.6 320.9 L 636.8 319.1 L 634.0 317.3 L 631.2 315.6 L 628.3 314.0 L 625.4 312.3 L 622.5 310.7 L 619.5 309.2 L 616.6 307.7 L 613.6 306.2 L 610.6 304.8 L 607.5 303.4 L 604.5 302.1 L 601.4 300.8 L 598.3 299.6 L 595.2 298.4 L 592.1 297.3 L 589.0 296.2 L 585.8 295.1 L 582.7 294.1 L 579.5 293.1 L 576.3 292.2 L 573.1 291.3 L 569.9 290.5 L 566.7 289.7 L 563.4 289.0 L 560.2 288.3 L 557.0 287.7 L 553.7 287.1 L 550.4 286.5 L 547.1 286.0 L 543.9 285.5 L 540.6 285.1 L 537.3 284.7 L 534.0 284.4 L 530.7 284.2 L 527.4 283.9 L 524.1 283.7 L 520.8 283.6 L 517.5 283.5 L 514.2 283.5 L 510.8 283.5 L 507.5 283.5 L 504.2 283.6 L 500.9 283.7 L 497.6 283.9 L 494.3 284.2 L 491.0 284.4 L 487.7 284.8 L 484.4 285.1 L 481.1 285.5 L 477.9 286.0 L 474.6 286.5 L 471.3 287.1 L 468.1 287.7 L 464.8 288.3 L 461.6 289.0 L 458.3 289.7 L 455.1 290.5 L 451.9 291.3 L 448.7 292.2 L 445.5 293.1 L 442.4 294.1 L 439.0 294.4 L 435.7 295.0 L 432.2 295.3 L 428.7 295.5 L 425.1 295.6 Z" fill="#1a1a1a"/>
  </g>
</svg>